<svg id="Calque_1" data-name="Calque 1" xmlns="http://www.w3.org/2000/svg" viewBox="0 0 26 15.84"><defs><style>.cls-1,.cls-2,.cls-3,.cls-4{fill:none;stroke:#e3001b;}.cls-1{stroke-linejoin:round;}.cls-2{stroke-linecap:round;}.cls-2,.cls-3,.cls-4{stroke-miterlimit:10;}.cls-4{stroke-dasharray:4.13;}</style></defs><g id="commande"><path class="cls-1" d="M7190.27,7194.49h-1.53l-.39-2.41h.41a.32.32,0,0,1,.28.18Z" transform="translate(-7186.5 -7191.58)"/><line class="cls-2" x1="1.54" y1="1.27" x2="3.54" y2="1.27"/><path class="cls-1" d="M7193.05,7200.88c.21.54.5,1.21.64,1.21h12c.84,0,1.58-1.9,1.58-1.9h4.7s-2.48,6.73-5.19,6.73h-18.16s-1.65-1.06-1.65-2.36v-3.68Z" transform="translate(-7186.5 -7191.58)"/><circle class="cls-3" cx="23.11" cy="9.91" r="0.53"/><path class="cls-3" d="M7204.66,7204.18a.77.77,0,0,0,1.54,0,.77.77,0,0,0-1.54,0Z" transform="translate(-7186.5 -7191.58)"/><circle class="cls-3" cx="16.57" cy="12.6" r="0.77"/><path class="cls-3" d="M7200,7204.18a.77.77,0,1,0,.77-.77A.77.77,0,0,0,7200,7204.18Z" transform="translate(-7186.5 -7191.58)"/><path class="cls-3" d="M7187.34,7197.05c.1,0,.17-.12.17-.26v-1.73c0-.23.13-.42.28-.42h3c.15,0,.28.19.28.42v1.73c0,.14.07.26.17.26h.92c.16,0,.28.19.28.43v3.33h-5.39v-3.33C7187.06,7197.24,7187.19,7197.05,7187.34,7197.05Z" transform="translate(-7186.5 -7191.58)"/><line class="cls-3" x1="4.52" y1="4.29" x2="2.54" y2="4.29"/><line class="cls-4" x1="5.2" y1="8.17" x2="1.06" y2="8.17"/><rect class="cls-1" x="7.41" y="2.44" width="11.63" height="7.82"/><line class="cls-3" x1="19.11" y1="6.04" x2="12.18" y2="6.04"/><line class="cls-3" x1="12.06" y1="8.13" x2="7.45" y2="8.13"/><line class="cls-3" x1="12.13" y1="2.63" x2="12.13" y2="10.02"/></g></svg>