<svg id="Calque_1" data-name="Calque 1" xmlns="http://www.w3.org/2000/svg" viewBox="0 0 26 22.8"><defs><style>.cls-1{fill:none;stroke:#e3001b;stroke-linecap:round;stroke-linejoin:round;}</style></defs><g id="demande"><polyline class="cls-1" points="16.49 13.08 17.05 14.04 25.44 3.09"/><polyline class="cls-1" points="14.85 11.84 15.41 12.8 16.49 13.08"/><line class="cls-1" x1="13.97" y1="11.53" x2="12.64" y2="15.78"/><line class="cls-1" x1="13.44" y1="16.39" x2="17.05" y2="14.04"/><polyline class="cls-1" points="22.19 0.64 13.96 11.53 14.85 11.84"/><polygon class="cls-1" points="12.64 15.78 12.44 16.88 13.45 16.39 12.64 15.78"/><path class="cls-1" d="M7210.77,7189.37c.9.67,1.42,1.49,1.17,1.83s-1.18.05-2.08-.63-1.42-1.49-1.17-1.83S7209.87,7188.69,7210.77,7189.37Z" transform="translate(-7186.5 -7188.1)"/><line class="cls-1" x1="5.08" y1="1.23" x2="3.72" y2="1.23"/><line class="cls-1" x1="10.48" y1="1.23" x2="9.12" y2="1.23"/><polyline class="cls-1" points="14.52 1.23 16.89 1.23 16.89 6.15 0.5 6.15 0.5 1.23 2.37 1.23"/><line class="cls-1" x1="13.18" y1="1.23" x2="11.82" y2="1.23"/><line class="cls-1" x1="7.78" y1="1.23" x2="6.42" y2="1.23"/><path class="cls-1" d="M7190.22,7189.33a.88.88,0,0,1-.67,1.45.89.89,0,0,1-.68-1.45" transform="translate(-7186.5 -7188.1)"/><path class="cls-1" d="M7192.92,7189.33a.89.89,0,0,1,.21.57.89.89,0,0,1-1.77,0,.85.85,0,0,1,.22-.57" transform="translate(-7186.5 -7188.1)"/><path class="cls-1" d="M7195.62,7189.33a.89.89,0,0,1,.21.57.88.88,0,1,1-1.76,0,.84.84,0,0,1,.21-.57" transform="translate(-7186.5 -7188.1)"/><path class="cls-1" d="M7198.32,7189.33a.88.88,0,0,1-.67,1.45.87.87,0,0,1-.88-.88.84.84,0,0,1,.21-.57" transform="translate(-7186.5 -7188.1)"/><path class="cls-1" d="M7201,7189.33a.88.88,0,0,1-.67,1.45.87.87,0,0,1-.88-.88.89.89,0,0,1,.21-.57" transform="translate(-7186.5 -7188.1)"/><polyline class="cls-1" points="16.89 14.85 16.89 22.3 0.5 22.3 0.5 6.24 0.5 6.01"/><polyline class="cls-1" points="8.63 7.32 4.32 12.26 2.12 10.1"/><line class="cls-1" x1="9.23" y1="9.43" x2="14.31" y2="9.43"/><polyline class="cls-1" points="8.8 14.21 4.48 19.14 2.28 16.98"/><line class="cls-1" x1="9.98" y1="16.92" x2="12.02" y2="16.92"/><line class="cls-1" x1="16.89" y1="6.03" x2="16.89" y2="6.88"/></g></svg>