<svg id="Calque_1" data-name="Calque 1" xmlns="http://www.w3.org/2000/svg" viewBox="0 0 24.21 26.02"><defs><style>.cls-1,.cls-2,.cls-3{fill:none;stroke:#e3001b;}.cls-1,.cls-3{stroke-miterlimit:10;}.cls-2{stroke-linejoin:round;}.cls-3{stroke-linecap:round;}</style></defs><g id="fournisseur"><polygon class="cls-1" points="16.01 9.02 16.01 11.32 10.59 8.64 10.59 11.24 4.74 8.62 4.71 25.5 16.73 25.52 16.73 25.49 23.69 25.5 23.71 11.99 16.01 9.02"/><rect class="cls-1" x="7199.83" y="7195.98" width="2.86" height="13.66" transform="translate(-7200.75 7205.76) rotate(-89.91)"/><rect class="cls-2" x="7180.53" y="7200.42" width="18.96" height="4.19" transform="translate(-7211.73 7194.16) rotate(-89.91)"/><path class="cls-3" d="M7191.1,7187c0,.54-2.14.54-2.14,1.09s2.14.55,2.14,1.1-2.15.55-2.15,1.1,2.15.55,2.15,1.1-2.15.55-2.15,1.1" transform="translate(-7187.4 -7186.49)"/><line class="cls-1" x1="10.57" y1="14.79" x2="10.57" y2="17.84"/><line class="cls-1" x1="16.1" y1="15.14" x2="16.09" y2="17.55"/></g></svg>