<svg id="Calque_1" data-name="Calque 1" xmlns="http://www.w3.org/2000/svg" viewBox="0 0 26 22.28"><defs><style>.cls-1{fill:none;stroke:#e3001b;stroke-linecap:round;stroke-miterlimit:10;}</style></defs><g id="warning"><path class="cls-1" d="M7209.56,7210.14a2.44,2.44,0,0,0,2.08-3.72L7201.58,7190a2.43,2.43,0,0,0-4.16,0l-10.06,16.39a2.44,2.44,0,0,0,2.08,3.72Z" transform="translate(-7186.5 -7188.36)"/><path class="cls-1" d="M7200.75,7202.16a1.25,1.25,0,0,1-1.21,1h-.07a1.25,1.25,0,0,1-1.22-1l-1-4.47a2.21,2.21,0,0,1,.43-1.84,2.19,2.19,0,0,1,1.7-.81h.24a2.19,2.19,0,0,1,1.7.81,2.21,2.21,0,0,1,.43,1.84Z" transform="translate(-7186.5 -7188.36)"/><path class="cls-1" d="M7200.8,7205.57a1.3,1.3,0,1,1-1.3-1.3A1.3,1.3,0,0,1,7200.8,7205.57Z" transform="translate(-7186.5 -7188.36)"/></g></svg>