<svg id="Calque_1" data-name="Calque 1" xmlns="http://www.w3.org/2000/svg" viewBox="0 0 103.19 80"><defs><style>.cls-1{fill:#e3001b;}</style></defs><path class="cls-1" d="M7115.3,7162.67h-92.89a5,5,0,0,1,0-10h92.89a5,5,0,1,1,0,10Z" transform="translate(-7017.41 -7152.67)"/><path class="cls-1" d="M7115.45,7197.67h-92.9a5,5,0,0,1,0-10h92.9a5,5,0,0,1,0,10Z" transform="translate(-7017.41 -7152.67)"/><path class="cls-1" d="M7115.59,7232.67H7022.7a5,5,0,1,1,0-10h92.89a5,5,0,0,1,0,10Z" transform="translate(-7017.41 -7152.67)"/></svg>