<svg id="Calque_1" data-name="Calque 1" xmlns="http://www.w3.org/2000/svg" viewBox="0 0 26 24.87"><defs><style>.cls-1{fill:none;stroke:#e3001b;stroke-linecap:round;stroke-linejoin:round;}</style></defs><path class="cls-1" d="M7183.37,7212.18l-2.43-2.43a2.34,2.34,0,0,0-1.84-.69,3.92,3.92,0,0,1-3.87-5.42l2.38,2.37a.4.4,0,0,0,.56,0l1.59-1.59a1,1,0,0,0,0-1.36l-1.74-1.74a3.91,3.91,0,0,1,3.6,1.06,3.86,3.86,0,0,1,1.13,3,2.4,2.4,0,0,0,.69,1.84l2.43,2.43" transform="translate(-7171.28 -7200.73)"/><path class="cls-1" d="M7187.22,7211l3.56,3.56a2.36,2.36,0,0,0,1.83.69,3.91,3.91,0,0,1,4.08,4.74l-2.14-2.14a.4.4,0,0,0-.56,0l-1.59,1.59a1,1,0,0,0,0,1.36l2,2a3.91,3.91,0,0,1-5.42-3.87,2.36,2.36,0,0,0-.69-1.83l-3.56-3.56" transform="translate(-7171.28 -7200.73)"/><path class="cls-1" d="M7172.09,7220.84a1.07,1.07,0,0,0,0,1.5l2.46,2.45a1,1,0,0,0,1.49,0l7.09-7.08-4-3.95Z" transform="translate(-7171.28 -7200.73)"/><path class="cls-1" d="M7179.86,7214.45l2.57,2.57,1.16-1.16a.57.57,0,0,0,0-.82l-1.74-1.75a.59.59,0,0,0-.42-.17.58.58,0,0,0-.41.17Z" transform="translate(-7171.28 -7200.73)"/><polygon class="cls-1" points="18.3 3.75 17.94 5.58 10.77 12.76 12.11 14.1 19.29 6.93 21.12 6.57 22.35 3.54 21.32 2.52 18.3 3.75"/><line class="cls-1" x1="2.43" y1="20.89" x2="8.07" y2="15.25"/><line class="cls-1" x1="3.98" y1="22.44" x2="9.62" y2="16.79"/></svg>