<svg id="Calque_1" data-name="Calque 1" xmlns="http://www.w3.org/2000/svg" viewBox="0 0 26 26"><defs><style>.cls-1{fill:none;stroke:#000;stroke-linecap:round;stroke-miterlimit:10;}</style></defs><line class="cls-1" x1="16.07" y1="17.18" x2="14.81" y2="15.92"/><line class="cls-1" x1="17.18" y1="16.07" x2="15.92" y2="14.81"/><path class="cls-1" d="M7206.53,7225.62a1.06,1.06,0,0,1-1.51,0l-7.08-7.08a.4.4,0,0,1,0-.59l1.79-1.79a.41.41,0,0,1,.58,0l7.09,7.08a1.07,1.07,0,0,1,0,1.51Z" transform="translate(-7182.21 -7200.43)"/><path class="cls-1" d="M7195.19,7215.55l-.12.12,1,1a.42.42,0,0,0,.59,0l.34-.34,1.11-1.11.34-.34a.42.42,0,0,0,0-.59l-1-1-.12.12" transform="translate(-7182.21 -7200.43)"/><path class="cls-1" d="M7196.36,7214.58a8,8,0,1,1,0-11.3A8,8,0,0,1,7196.36,7214.58Z" transform="translate(-7182.21 -7200.43)"/><path class="cls-1" d="M7186.09,7213.55a6.53,6.53,0,1,1,9.23,0A6.55,6.55,0,0,1,7186.09,7213.55Z" transform="translate(-7182.21 -7200.43)"/></svg>