<svg id="Calque_1" data-name="Calque 1" xmlns="http://www.w3.org/2000/svg" viewBox="0 0 26 24.02"><defs><style>.cls-1{fill:none;stroke:#fff;stroke-linecap:round;stroke-linejoin:round;}</style></defs><g id="kanban"><rect class="cls-1" x="0.5" y="7.91" width="25" height="3.73" rx="0.6"/><line class="cls-1" x1="8.5" y1="1.42" x2="1.78" y2="7.9"/><line class="cls-1" x1="24.21" y1="7.9" x2="17.49" y2="1.42"/><path class="cls-1" d="M7210.5,7199.13l-2.1,10.63a1.55,1.55,0,0,1-1.53,1.25h-14.75a1.54,1.54,0,0,1-1.52-1.25l-2.11-10.63" transform="translate(-7186.5 -7187.49)"/><path class="cls-1" d="M7203.08,7189.36h-7.17a.69.69,0,0,1,0-1.37h7.17A.69.69,0,1,1,7203.08,7189.36Z" transform="translate(-7186.5 -7187.49)"/><line class="cls-1" x1="5.39" y1="15.36" x2="20.6" y2="15.36"/><line class="cls-1" x1="7.64" y1="18.72" x2="18.35" y2="18.72"/></g></svg>