<svg id="Calque_1" data-name="Calque 1" xmlns="http://www.w3.org/2000/svg" viewBox="0 0 26 25.56"><defs><style>.cls-1{fill:none;stroke:#fff;stroke-linejoin:round;}</style></defs><g id="produit"><rect class="cls-1" x="0.5" y="4.86" width="19.28" height="20.2"/><polygon class="cls-1" points="25.32 0.5 6.05 0.5 0.5 4.86 19.78 4.86 25.32 0.5"/><polyline class="cls-1" points="22.64 9.88 22.64 2.88 2.97 2.88"/><polygon class="cls-1" points="19.78 25.06 25.5 20.7 25.5 0.5 19.78 4.86 19.78 25.06"/><polyline class="cls-1" points="10.1 11.99 10.1 4.68 14.8 0.54"/><line class="cls-1" x1="9.92" y1="21.36" x2="17.31" y2="21.36"/><line class="cls-1" x1="11.25" y1="18.49" x2="11.25" y2="21.39"/><polygon class="cls-1" points="11.25 17.16 12.08 18.61 10.41 18.61 11.25 17.16"/><line class="cls-1" x1="14.94" y1="18.49" x2="14.94" y2="21.39"/><polygon class="cls-1" points="14.94 17.16 15.78 18.61 14.11 18.61 14.94 17.16"/></g></svg>